<?xml version="1.0" encoding="utf-8"?>
<!-- Generator: Adobe Illustrator 25.4.1, SVG Export Plug-In . SVG Version: 6.00 Build 0)  -->
<svg version="1.1" id="Calque_1" xmlns="http://www.w3.org/2000/svg" xmlns:xlink="http://www.w3.org/1999/xlink" x="0px" y="0px"
	 viewBox="0 0 841.89 595.28" style="enable-background:new 0 0 841.89 595.28;" xml:space="preserve">
<style type="text/css">
	.st0{fill:#FFFFFF;}
</style>
<path class="st0" d="M619.41,395.23c5.57-0.28,10.31-1.85,14.84-4.04c8.89-4.32,16.97-9.88,24.54-16.2
	c11.63-9.71,22.27-20.36,31.18-32.67c0.76-1.05,0.98-1.93,0.42-3.16c-0.55-1.21-0.96-2.53-1.17-3.85c-0.96-6.02,0.48-11.6,3.4-16.84
	c3.02-5.41,7.14-9.54,13.31-11.24c3.63-0.99,3.8-1.13,4.08-4.89c0.09-1.21,0.13-2.45,0-3.66c-0.34-3.18-2.18-4.71-5.35-4.4
	c-1.39,0.13-2.9,0.27-4.11,0.89c-4.49,2.31-9.11,4.49-13.25,7.33c-12.23,8.38-23.06,18.44-33.4,29.02
	c-12.41,12.7-24.06,26.05-33.7,41.03c-3.02,4.69-5.97,9.45-7.45,14.92c-1.39,5.13,0.49,7.65,5.79,7.81
	C618.99,395.31,619.44,395.23,619.41,395.23 M698.1,341.16c5.52,5.83,12.17,6.22,19.43,4.53c0.47,1.92,0.91,3.76,1.36,5.58
	c-6.46,3.58-15.23,1.82-24.76-4.96c-2.49,2.97-4.98,5.97-7.49,8.94c-9.4,11.13-19.54,21.49-31.47,29.95
	c-7.93,5.62-16.16,10.74-25.6,13.5c-6.75,1.98-13.62,2.58-20.56,1.06c-11.15-2.45-18.75-11.32-19.26-22.77
	c-0.2-4.45,0.17-8.94,0.27-13.3c-3.51,2.91-7.2,6.08-11.01,9.11c-12.35,9.82-25.32,18.7-39.75,25.22c-6.2,2.8-12.68,4.65-19.61,3.72
	c-7.99-1.07-13.34-6.52-14.82-15c-1.28-7.32,0.31-14.14,3.54-20.7c4.59-9.34,11.22-17.14,18.11-24.81
	c11.2-12.47,22.22-25.11,33.26-37.73c1.13-1.29,2.16-2.77,2.82-4.34c0.41-0.97,0.41-2.5-0.11-3.36c-0.37-0.62-2.01-0.96-2.88-0.71
	c-2.88,0.83-5.81,1.69-8.46,3.06c-10.68,5.51-20.13,12.82-29.32,20.48c-18.56,15.45-34.39,33.5-49.68,52.07
	c-7.06,8.58-14.18,17.12-21.32,25.63c-0.46,0.54-1.35,1.02-2.05,1.02c-12.98,0.06-25.97,0.04-38.95,0.04
	c-0.18,0-0.37-0.05-0.89-0.13c5.33-6.89,10.54-13.64,15.76-20.39c-0.08-0.08-0.16-0.15-0.25-0.23c-3.14,2.37-6.19,4.89-9.45,7.09
	c-6.49,4.38-12.97,8.79-19.68,12.82c-5.5,3.3-11.71,4.14-18.05,3.48c-9.71-1-16.04-8.04-16.65-18.09
	c-0.58-9.54,1.76-18.23,7.41-25.94c6.42-8.75,12.91-17.45,19.51-26.07c9.77-12.75,19.68-25.39,29.48-38.12
	c0.93-1.2,1.88-1.62,3.36-1.62c12.15,0.06,24.3,0.03,36.45,0.04h2.38c-0.35,0.6-0.55,1.03-0.83,1.4
	c-19.27,25.14-38.56,50.26-57.81,75.42c-4.17,5.46-8.24,11-12.29,16.56c-0.94,1.29-1.74,2.72-2.32,4.2
	c-1.1,2.83,0.62,5.28,3.59,4.89c1.98-0.26,4.01-0.99,5.76-1.97c9.32-5.28,17.68-11.92,25.88-18.74
	c7.26-6.03,14.34-12.29,21.34-18.62c2.12-1.92,3.76-4.37,5.53-6.65c14.26-18.38,28.49-36.78,42.76-55.14
	c0.49-0.63,1.36-1.35,2.06-1.35c12.66-0.08,25.31-0.06,38.43-0.06c-10.63,13.95-21.06,27.63-31.49,41.31
	c0.1,0.09,0.19,0.18,0.29,0.27c3.12-2.97,6.22-5.96,9.36-8.92c11.16-10.52,22.99-20.16,36.58-27.43c6.73-3.6,13.68-6.52,21.46-6.79
	c11.64-0.41,19.25,7.07,19.37,18.78c0.1,9.8-3.6,18.3-9.28,25.81c-5.95,7.87-12.71,15.14-19.1,22.68
	c-8.85,10.44-17.69,20.88-26.51,31.34c-0.78,0.92-1.46,1.97-2.04,3.03c-0.82,1.48-0.29,3.02,1.37,3.27
	c1.72,0.25,3.68,0.32,5.26-0.28c3.46-1.3,6.92-2.79,10.07-4.7c13.88-8.45,26.43-18.68,38.81-29.13c2.41-2.02,4.96-3.87,7.42-5.83
	c0.43-0.34,0.85-0.82,1.05-1.33c6.3-15.47,16.96-27.58,29.57-38.13c13.66-11.43,28.88-20.05,46.1-24.82
	c10.42-2.88,21.06-3.98,31.85-2.6c3.41,0.43,6.66,1.4,9.48,3.47c3.01,2.2,4.52,5.15,4.55,8.9c0.04,5.84-1.66,11.26-3.74,16.61
	c-3.12,8-7.52,15.31-11.95,22.61C699.24,339.18,698.74,340.08,698.1,341.16"/>
<path class="st0" d="M387.82,197.59c0.1,0.17,0.21,0.34,0.31,0.52c0.18,0.02,0.37,0.04,0.55,0.05c20.89,0.88,39.85-5.43,57.77-15.55
	c3.42-1.93,6.54-4.35,8.73-7.72c1.08-1.67,1.81-3.59,0.89-5.46c-0.9-1.83-2.96-2.11-4.73-1.92c-4.26,0.44-8.62,0.69-12.71,1.85
	c-12.51,3.55-23.97,9.47-34.75,16.68C398.4,189.7,393.16,193.73,387.82,197.59 M188.7,382.57c0.62-0.24,0.26-0.09,0.62-0.24
	c-0.47-0.17-1.67-0.61-2.14-0.74c-4.64-1.25-9.28-2.52-13.92-3.74c-14.91-3.92-29.98-5.75-45.34-3.17
	c-5.03,0.84-9.93,2.05-14.25,4.94c-2.09,1.4-3.48,3.32-3.27,5.94c0.19,2.54,2.18,3.61,4.24,4.52c5.91,2.6,12.16,3.71,18.54,3.77
	c14.14,0.13,28.02-1.92,41.53-6.11C179.45,386.26,184.04,384.31,188.7,382.57 M329.06,278.5c13.49,1.86,25.98,0.02,37.77-6.32
	c0.48,0.56,0.87,0.97,1.21,1.41c0.35,0.45,0.66,0.94,1.05,1.5c-2.45,3.23-5.44,5.82-8.85,7.91c-11.67,7.17-24.44,9.76-37.99,8.95
	c-0.97-0.06-1.64-0.07-2.26,0.87c-16.74,25.44-39.45,44.25-65.74,59.07c-6.21,3.5-12.4,7.03-18.6,10.54
	c-0.53,0.3-1.04,0.64-2.01,1.25c5.87,0.45,11.21,1,16.55,1.22c11.75,0.49,23.5,1.15,35.25,1.1c14.91-0.05,29.8-0.77,44.31-4.81
	c7.91-2.2,15.42-5.28,22.03-10.25c4.51-3.39,7.43-7.92,9.26-13.36c1.72,0.34,3.39,0.68,5.55,1.11c-1.63,4.29-2.96,8.51-4.8,12.48
	c-8.84,19.09-23.59,32.06-42.63,40.4c-15.15,6.64-31.07,9-47.54,8.61c-22.5-0.53-44.19-5.36-65.41-12.35
	c-5.63-1.85-10.31-1.86-15.82,0.54c-12.14,5.28-24.84,9.04-38.03,10.78c-12.12,1.6-24.25,1.91-36.08-1.79
	c-3.22-1.01-6.44-2.72-9.06-4.85c-5.23-4.23-4.74-11.89,0.73-16.89c5.55-5.08,12.23-8.19,19.26-10.61
	c11.28-3.88,22.97-5.5,34.81-5.83c18.46-0.51,36.88,0.26,55.21,2.5c3.36,0.41,5.4-0.44,7.62-2.77
	c10.95-11.47,20.63-23.97,29.72-36.89c8.05-11.45,15.65-23.22,23.44-34.85c0.21-0.31,0.36-0.66,0.73-1.33
	c-14.94-0.88-29.09,0.38-41.84,9.26c-0.89-1.47-1.69-2.8-2.63-4.35c2.02-1.59,3.96-3.15,5.94-4.65
	c9.73-7.39,20.81-11.29,32.87-12.53c4.59-0.47,9.22-0.61,13.83-1c0.73-0.06,1.65-0.44,2.07-0.99c13.75-18.03,30.7-32.59,49.25-45.42
	c8.87-6.14,17.84-12.12,26.77-18.18c0.34-0.23,0.67-0.5,0.93-0.69c-3.63,0-7.27-0.26-10.87,0.04c-12.98,1.12-25.58-0.82-38.08-4.19
	c-15.61-4.2-30.38-10.62-45.24-16.81c-10.31-4.3-20.84-7.28-32.08-7.2c-15.43,0.11-33.15,10.27-36.69,29.77
	c-2.01,11.05,1.66,19.3,11.55,24.62c6.81,3.67,14.2,4.6,21.81,4.61c16.82,0.01,30.86-6.83,43.26-17.6
	c4.07-3.53,7.93-7.3,12.01-11.09c0.78,0.59,1.68,1.27,2.64,1.98c-5.06,9.26-12.2,16.32-20.97,21.76
	c-11.35,7.05-23.67,11.28-37.09,11.3c-11.61,0.02-22.52-2.52-31.63-10.49c-7.38-6.45-9.65-14.47-8.52-23.91
	c1.34-11.29,7.37-19.83,15.56-27.08c12.11-10.71,26.51-16.73,42.18-19.9c19.26-3.89,38.32-3.09,56.59,4.43
	c9.47,3.89,18.5,8.92,27.52,13.81c10.64,5.76,21.36,11.23,33.24,14.01c2.31,0.54,4.67,0.89,6.96,1.47c1.28,0.33,2.15-0.06,3.14-0.82
	c11.03-8.55,22.43-16.55,34.95-22.83c8.91-4.47,18.01-8.5,27.93-10.14c4.5-0.74,9.02-1.3,13.48,0.53c5.12,2.11,6.61,5.02,5.03,10.36
	c-0.89,3.01-2.73,5.33-5.06,7.35c-9.27,8.01-20.32,12.7-31.71,16.6c-13.21,4.53-26.79,7.29-40.82,6.51
	c-3.31-0.18-5.08,1.12-7.1,3.24c-15.99,16.78-28.34,36.15-40.14,55.93C334.89,268.46,332.08,273.34,329.06,278.5"/>
<path class="st0" d="M492.95,243.2c-0.11,13.9-12.56,25.5-26.39,24.6c-8.25-0.54-18.56-8.55-16.04-20.96
	c1.97-9.7,10.38-18.27,20.1-20.1c6.5-1.22,12.38,0.36,17.45,4.62C491.71,234.43,493.17,238.49,492.95,243.2"/>
</svg>
