<?xml version="1.0" encoding="utf-8"?>
<!-- Generator: Adobe Illustrator 19.0.0, SVG Export Plug-In . SVG Version: 6.00 Build 0)  -->
<svg version="1.1" id="Calque_1" xmlns="http://www.w3.org/2000/svg" xmlns:xlink="http://www.w3.org/1999/xlink" x="0px" y="0px"
	 viewBox="0 0 30 30" style="enable-background:new 0 0 30 30;" xml:space="preserve">
<style type="text/css">
	.st0{fill:#39224E;}
</style>
<g id="XMLID_7_">
	<g id="XMLID_12_">
		<path id="XMLID_13_" class="st0" d="M25.5,9c-0.2,0.2-0.4,0.3-0.6,0.5c-0.2,0.1-0.5,0.2-0.8,0.4c-0.3,0.1-0.6,0.2-0.9,0.3
			s-0.6,0.2-0.9,0.2s-0.6,0.1-0.9,0.1c-0.1,0-0.2,0-0.3,0c-0.1,0-0.2,0-0.3,0c-0.6,0.7-1.2,1.4-1.7,2.1c-0.5,0.8-1,1.6-1.4,2.4
			c0.1,0,0.2,0,0.3,0c0.1,0,0.2,0,0.3,0c0.4,0,0.7,0,0.9-0.1c0.2-0.1,0.5-0.2,0.9-0.3l0.1,0.2c-0.2,0.2-0.3,0.4-0.6,0.5
			c-0.2,0.1-0.5,0.3-0.7,0.3c-0.3,0.1-0.5,0.1-0.8,0.2c-0.3,0-0.5,0-0.8,0c-0.4,0.5-0.7,1-1.1,1.4S15.4,18,15,18.3
			c-0.4,0.3-0.9,0.6-1.4,0.9s-1,0.6-1.6,0.9c0.5,0,1,0.1,1.5,0.1s1,0,1.5,0c0.3,0,0.8,0,1.2,0c0.5,0,1-0.1,1.4-0.2
			c0.5-0.1,0.9-0.3,1.3-0.5s0.6-0.6,0.8-1l0.3,0.1c-0.2,0.6-0.4,1.2-0.8,1.6c-0.4,0.5-0.8,0.8-1.3,1.2c-0.5,0.3-1,0.5-1.6,0.7
			s-1.2,0.2-1.8,0.2c-0.8,0-1.6-0.1-2.4-0.3c-0.8-0.2-1.6-0.4-2.3-0.7C9.3,21.6,8.7,21.8,8,22c-0.6,0.2-1.3,0.3-1.9,0.3
			c-0.1,0-0.3,0-0.5,0s-0.4-0.1-0.7-0.1c-0.2-0.1-0.4-0.2-0.6-0.3c-0.2-0.1-0.2-0.3-0.2-0.5s0.1-0.4,0.3-0.6
			c0.2-0.2,0.4-0.3,0.7-0.4c0.3-0.1,0.5-0.2,0.8-0.3C6.2,20,6.4,20,6.6,20s0.5-0.1,0.7-0.1s0.4,0,0.7,0c0.6,0,1.1,0,1.7,0
			c0.6,0,1.1,0.1,1.6,0.1c0.3-0.3,0.6-0.6,0.9-1c0.3-0.4,0.6-0.8,0.9-1.2c0.3-0.4,0.6-0.8,0.9-1.3c0.3-0.4,0.5-0.8,0.7-1.2
			c-0.1,0-0.1,0-0.2,0c-0.1,0-0.2,0-0.2,0c-0.4,0-0.8,0-1.1,0.1s-0.6,0.2-1,0.5L12,15.6c0.5-0.4,1-0.7,1.5-0.9
			c0.5-0.1,1.1-0.2,1.7-0.2c0.6-0.8,1.4-1.6,2.2-2.2c0.8-0.6,1.7-1.2,2.6-1.8h-0.1c-0.2,0-0.4,0-0.6,0s-0.4,0-0.5,0
			c-0.2,0-0.5,0-0.8-0.1c-0.3,0-0.6-0.1-0.9-0.2c-0.3-0.1-0.6-0.2-0.8-0.3c-0.3,0.1-0.5,0-0.7-0.1c-0.5-0.2-1-0.4-1.6-0.6
			c-0.5-0.2-1.1-0.3-1.7-0.3c-0.3,0-0.6,0.1-0.9,0.2c-0.3,0.1-0.5,0.3-0.7,0.5s-0.4,0.4-0.5,0.7S10,10.9,10,11.2
			c0,0.3,0.1,0.5,0.2,0.6c0.1,0.2,0.3,0.3,0.5,0.4c0.2,0.1,0.4,0.2,0.6,0.2c0.2,0,0.5,0.1,0.7,0.1c0.7,0,1.4-0.2,1.9-0.5
			s1-0.7,1.5-1.3l0.2,0.1c-0.2,0.3-0.4,0.6-0.6,0.8c-0.3,0.2-0.5,0.5-0.9,0.6c-0.3,0.2-0.6,0.3-1,0.4c-0.3,0.1-0.7,0.1-1,0.1
			s-0.5,0-0.8-0.1s-0.5-0.2-0.8-0.3c-0.2-0.1-0.4-0.3-0.6-0.5c-0.2-0.2-0.2-0.5-0.2-0.8c0-0.5,0.2-1,0.5-1.4s0.7-0.7,1.2-1
			s1-0.5,1.5-0.6s1-0.2,1.5-0.2c0.4,0,0.8,0,1.1,0.1c0.3,0,0.6,0.1,0.9,0.2c0.3,0.1,0.6,0.2,0.9,0.4s0.6,0.3,1,0.5
			c0.2,0.1,0.4,0.2,0.6,0.3s0.4,0.2,0.6,0.3s0.4,0.1,0.6,0.2c0.2,0.1,0.5,0.1,0.7,0.2c0.3-0.2,0.6-0.4,0.9-0.7
			c0.4-0.2,0.7-0.5,1.1-0.7s0.8-0.4,1.2-0.5c0.4-0.1,0.8-0.2,1.1-0.2c0.1,0,0.3,0,0.4,0.1c0.2,0.1,0.2,0.2,0.2,0.3
			C25.9,8.6,25.8,8.8,25.5,9z M7.9,20.8c-0.5-0.1-1-0.2-1.4-0.2c-0.1,0-0.3,0-0.5,0s-0.4,0-0.7,0.1c-0.2,0-0.4,0.1-0.6,0.2
			s-0.3,0.2-0.3,0.4c0,0.1,0.1,0.2,0.2,0.3c0.1,0.1,0.3,0.1,0.4,0.2c0.2,0,0.3,0.1,0.5,0.1s0.3,0,0.3,0c0.5,0,1.1-0.1,1.7-0.2
			s1.1-0.3,1.6-0.5C8.9,21,8.4,20.9,7.9,20.8z M25.4,8.2c-0.1,0-0.2,0-0.2,0c-0.3,0-0.6,0.1-1,0.2c-0.4,0.1-0.7,0.3-1.1,0.5
			s-0.7,0.4-1,0.6c-0.3,0.2-0.6,0.4-0.8,0.6h0.4c0.5,0,0.9-0.1,1.4-0.2c0.5-0.1,0.9-0.3,1.3-0.5c0.1,0,0.2-0.1,0.3-0.2
			C24.9,9.1,25,9,25.1,8.9s0.2-0.2,0.3-0.3c0.1-0.1,0.1-0.2,0.1-0.3C25.5,8.3,25.5,8.2,25.4,8.2z"/>
	</g>
	<g id="XMLID_8_">
		<path id="XMLID_9_" class="st0" d="M15,29.4c-3.8,0-7.4-1.5-10.2-4.2C2.1,22.4,0.6,18.8,0.6,15S2.1,7.6,4.8,4.8
			C7.5,2.1,11.2,0.6,15,0.6s7.4,1.5,10.2,4.2c2.7,2.7,4.2,6.3,4.2,10.2s-1.5,7.4-4.2,10.2C22.4,27.9,18.8,29.4,15,29.4z M15,1.4
			C7.5,1.4,1.4,7.5,1.4,15S7.5,28.6,15,28.6S28.6,22.5,28.6,15S22.5,1.4,15,1.4z"/>
	</g>
</g>
<g id="XMLID_6_">
</g>
<g id="XMLID_10_">
</g>
<g id="XMLID_11_">
</g>
<g id="XMLID_14_">
</g>
<g id="XMLID_15_">
</g>
<g id="XMLID_16_">
</g>
<g id="XMLID_17_">
</g>
<g id="XMLID_18_">
</g>
<g id="XMLID_19_">
</g>
<g id="XMLID_20_">
</g>
<g id="XMLID_21_">
</g>
<g id="XMLID_22_">
</g>
<g id="XMLID_23_">
</g>
<g id="XMLID_24_">
</g>
<g id="XMLID_25_">
</g>
</svg>
